# xmcd CD database file
#
# Track frame offsets:
#	150
#	11688
#	22175
#	33363
#	46925
#	58763
#	68675
#	78700
#	93625
#	104300
#	112350
#	122363
#	133963
#	146088
#	157500
#
# Disc length: 2254 seconds
#
# Revision: 0
# Processed by: cddbd v1.5.1PL0 Copyright (c) Steve Scherf et al.
# Submitted via: CDex 1.51
#
DISCID=d008cc0f
DTITLE=Don Gibson - I Can't Stop Loving You
DYEAR=1994
DGENRE=Country
TTITLE0=OneDay At A Time
TTITLE1=Country Green
TTITLE2=I Can Mend Your Broken heart
TTITLE3=Touch The Morning
TTITLE4=Give Myself A Party
TTITLE5=Who Cares (For Me)
TTITLE6=Sweet Dreams
TTITLE7=Woman (Sensous Woman)
TTITLE8=Far Far Away
TTITLE9=Blue Blue Day
TTITLE10=Lonesome Number One
TTITLE11=I Can't Stop Loving You
TTITLE12=Just One Time
TTITLE13=Sea Of Heartbreak
TTITLE14=Oh Lonesome Me
EXTD=YEAR: 1994
EXTT0=
EXTT1=
EXTT2=
EXTT3=
EXTT4=
EXTT5=
EXTT6=
EXTT7=
EXTT8=
EXTT9=
EXTT10=
EXTT11=
EXTT12=
EXTT13=
EXTT14=
PLAYORDER=
